<svg width="48" height="39" viewBox="0 0 48 39" fill="none" xmlns="http://www.w3.org/2000/svg">
<path d="M0 26.0539C0 32.4191 2.37838 36.4647 7.13514 38.1909C8.43243 38.7303 9.83784 39 11.3514 39C15.6757 39 18.8108 36.9502 20.7568 32.8506C21.5135 31.3403 21.8919 29.722 21.8919 27.9959C21.8919 23.3568 19.7838 20.0664 15.5676 18.1245C14.7027 17.8008 13.8919 17.5311 13.1351 17.3154C10.5405 16.5602 9.18919 15.2656 9.08108 13.4315C9.18919 10.195 11.1892 6.52697 15.0811 2.42739L11.8378 0C5.35135 6.79668 1.51351 14.2407 0.324324 22.332C0.108108 23.6266 0 24.8672 0 26.0539ZM26.1081 26.0539C26.1081 32.4191 28.4865 36.4647 33.2432 38.1909C34.5405 38.7303 35.9459 39 37.4595 39C41.7838 39 44.9189 36.9502 46.8649 32.8506C47.6216 31.3403 48 29.722 48 27.9959C48 23.3568 45.8919 20.0664 41.6757 18.1245C40.8108 17.8008 40 17.5311 39.2432 17.3154C36.6487 16.5602 35.2973 15.2656 35.1892 13.4315C35.2973 10.195 37.2973 6.52697 41.1892 2.42739L37.9459 0C31.4595 6.79668 27.6216 14.2407 26.4324 22.332C26.2162 23.6266 26.1081 24.8672 26.1081 26.0539Z" fill="#E0A297"/>
</svg>
